<?xml version="1.0" standalone="no"?>
<!DOCTYPE svg PUBLIC "-//W3C//DTD SVG 20010904//EN"
 "http://www.w3.org/TR/2001/REC-SVG-20010904/DTD/svg10.dtd">
<svg version="1.0" xmlns="http://www.w3.org/2000/svg"
 width="400.000000pt" height="400.000000pt" viewBox="0 0 400.000000 400.000000"
 preserveAspectRatio="xMidYMid meet">

<g transform="translate(0.000000,400.000000) scale(0.100000,-0.100000)"
fill="#000000" stroke="none">
<path d="M292 3830 c-61 -38 -62 -42 -62 -537 0 -501 0 -500 70 -536 32 -16
69 -17 445 -15 399 3 411 4 451 25 102 54 151 156 141 293 -6 92 -35 164 -95
238 -37 46 -41 55 -31 74 23 43 39 124 39 203 0 97 -27 165 -86 213 -70 58
-100 62 -488 62 -334 0 -353 -1 -384 -20z m708 -275 c0 -60 -21 -98 -64 -119
-28 -13 -70 -16 -235 -16 l-201 0 0 -125 0 -125 246 0 c203 0 252 -3 279 -16
40 -19 65 -66 65 -123 l0 -41 -305 0 -305 0 0 305 0 305 260 0 260 0 0 -45z"/>
<path d="M1705 3836 c-99 -31 -171 -91 -210 -172 -73 -155 -17 -359 122 -441
77 -45 136 -53 406 -53 l248 0 24 -25 c35 -34 35 -96 0 -130 l-24 -25 -401 0
-400 0 0 -126 0 -125 418 3 c407 3 418 4 473 26 77 31 142 90 176 160 24 50
27 69 28 152 0 84 -3 102 -28 152 -33 67 -90 121 -166 157 -55 26 -59 26 -338
31 -325 6 -318 4 -318 91 0 41 4 54 24 70 22 18 44 19 377 19 l354 0 0 125 0
125 -362 -1 c-264 0 -374 -4 -403 -13z"/>
<path d="M2792 3830 c-61 -38 -62 -42 -62 -537 0 -501 0 -500 70 -536 32 -16
69 -17 445 -15 399 3 411 4 451 25 102 54 151 156 141 293 -6 92 -35 164 -95
238 -37 46 -41 55 -31 74 23 43 39 124 39 203 0 97 -27 165 -86 213 -70 58
-100 62 -488 62 -334 0 -353 -1 -384 -20z m708 -275 c0 -60 -21 -98 -64 -119
-28 -13 -70 -16 -235 -16 l-201 0 0 -125 0 -125 246 0 c203 0 252 -3 279 -16
40 -19 65 -66 65 -123 l0 -41 -305 0 -305 0 0 305 0 305 260 0 260 0 0 -45z"/>
<path d="M1932 2472 c-138 -127 -300 -298 -376 -400 -82 -108 -178 -298 -211
-416 -21 -73 -25 -110 -25 -215 0 -201 50 -337 170 -465 59 -63 198 -172 207
-162 2 2 -7 28 -20 59 -34 75 -47 143 -47 242 l0 85 300 0 300 0 0 -82 c0 -99
-21 -206 -53 -270 l-24 -47 49 26 c105 57 218 175 275 287 86 171 84 414 -7
585 -47 88 -132 195 -255 321 -62 63 -122 133 -133 155 -47 94 -70 236 -54
333 5 28 7 52 5 52 -2 0 -47 -40 -101 -88z m45 -772 c46 -34 139 -152 172
-217 l21 -43 -240 0 -240 0 11 27 c30 80 185 263 223 263 7 0 31 -14 53 -30z"/>
<path d="M2735 1918 c-55 -43 -55 -44 -55 -593 l0 -505 125 0 125 0 0 348 0
347 123 -125 c67 -69 219 -226 337 -349 l215 -223 51 -5 c48 -5 54 -3 90 30
l39 35 3 526 3 526 -126 0 -125 0 -2 -345 -3 -345 -237 247 c-130 137 -281
294 -335 351 l-99 102 -51 0 c-36 0 -58 -6 -78 -22z"/>
<path d="M212 1418 c3 -459 5 -515 20 -536 41 -59 22 -57 531 -60 l467 -3 0
126 0 125 -385 0 -385 0 0 430 0 430 -125 0 -126 0 3 -512z"/>
<path d="M232 488 c-9 -9 -12 -62 -12 -190 l0 -178 40 0 39 0 3 93 3 92 54
-93 c48 -84 56 -93 79 -90 22 2 36 19 77 93 l50 90 3 -93 3 -92 39 0 40 0 0
179 c0 144 -3 181 -15 191 -30 25 -50 4 -124 -123 -72 -124 -75 -127 -88 -105
-8 13 -42 70 -76 128 -62 106 -87 126 -115 98z"/>
<path d="M1047 490 c-67 -13 -121 -66 -137 -136 -5 -21 -10 -83 -10 -136 l0
-98 40 0 40 0 0 45 0 45 110 0 110 0 0 -45 0 -45 40 0 40 0 0 174 c0 169 -1
175 -22 190 -24 17 -139 20 -211 6z m148 -135 l0 -60 -99 -3 c-55 -1 -103 1
-107 5 -14 14 10 80 34 96 30 19 60 25 122 23 l50 -1 0 -60z"/>
<path d="M1552 488 c-8 -8 -12 -65 -12 -190 l0 -178 40 0 40 0 0 115 c0 63 3
115 7 115 3 0 56 -52 117 -117 102 -106 114 -116 139 -109 l27 6 0 185 0 185
-40 0 -40 0 0 -120 0 -120 -116 120 c-64 66 -124 120 -133 120 -10 0 -22 -5
-29 -12z"/>
<path d="M2160 398 c0 -128 12 -172 59 -219 45 -46 91 -59 203 -59 120 0 119
-2 116 211 l-3 164 -37 3 -37 3 -3 -148 -3 -148 -57 -3 c-125 -7 -158 35 -158
198 l0 100 -40 0 -40 0 0 -102z"/>
<path d="M2937 490 c-67 -13 -121 -66 -137 -136 -5 -21 -10 -83 -10 -136 l0
-98 40 0 40 0 0 45 0 45 110 0 110 0 0 -45 0 -45 40 0 40 0 0 174 c0 169 -1
175 -22 190 -24 17 -139 20 -211 6z m148 -135 l0 -60 -99 -3 c-55 -1 -103 1
-107 5 -14 14 10 80 34 96 30 19 60 25 122 23 l50 -1 0 -60z"/>
<path d="M3430 320 c0 -167 1 -180 19 -190 11 -5 86 -10 170 -10 l151 0 0 40
0 40 -130 0 -130 0 0 150 0 150 -40 0 -40 0 0 -180z"/>
</g>
</svg>
