<?xml version="1.0" standalone="no"?>
<!DOCTYPE svg PUBLIC "-//W3C//DTD SVG 20010904//EN"
 "http://www.w3.org/TR/2001/REC-SVG-20010904/DTD/svg10.dtd">
<svg version="1.0" xmlns="http://www.w3.org/2000/svg"
 width="700.000000pt" height="700.000000pt" viewBox="0 0 700.000000 700.000000"
 preserveAspectRatio="xMidYMid meet">
<metadata>
Created by potrace 1.11, written by Peter Selinger 2001-2013
</metadata>
<g transform="translate(0.000000,700.000000) scale(0.100000,-0.100000)"
fill="#000000" stroke="none">
<path d="M608 6731 c-71 -8 -134 -41 -162 -83 -33 -52 -38 -129 -43 -763 -7
-913 1 -996 107 -1055 l45 -25 645 -3 c724 -3 822 2 901 45 159 86 239 237
239 454 0 179 -45 312 -155 457 -81 107 -80 106 -56 162 50 116 73 318 52 447
-31 182 -148 310 -317 349 -58 14 -162 17 -629 19 -308 2 -590 0 -627 -4z
m1142 -481 c0 -81 -19 -148 -53 -187 -59 -67 -63 -67 -462 -73 l-360 -5 -3
-216 -2 -216 414 -6 c242 -4 437 -12 468 -18 96 -21 146 -98 151 -234 l2 -60
-532 -3 -533 -2 0 535 0 535 455 0 455 0 0 -50z"/>
<path d="M3160 6730 c-147 -6 -172 -10 -230 -34 -286 -117 -427 -400 -350
-700 55 -214 195 -363 396 -418 74 -20 106 -22 536 -26 l457 -4 40 -43 c68
-74 68 -156 -1 -231 l-41 -44 -698 0 -699 0 0 -220 0 -220 193 1 c105 0 431 4
722 9 581 9 589 10 709 72 84 44 204 165 244 246 44 90 55 155 50 312 -3 135
-4 137 -42 216 -79 160 -263 301 -422 323 -38 5 -222 13 -409 16 -365 7 -527
17 -568 36 -31 14 -47 55 -46 118 0 75 19 113 64 136 38 19 64 20 648 23 l607
4 0 219 0 219 -497 -2 c-274 -1 -572 -4 -663 -8z"/>
<path d="M4984 6730 c-78 -9 -145 -47 -168 -94 -33 -70 -37 -188 -33 -932 3
-772 4 -782 50 -832 12 -13 40 -34 62 -45 40 -22 47 -22 680 -25 352 -1 686 2
743 7 127 12 176 34 258 115 105 106 151 241 140 414 -10 171 -51 280 -162
429 -71 97 -71 95 -35 194 29 79 41 167 41 295 0 180 -45 290 -157 380 -78 63
-141 83 -306 94 -160 11 -1019 11 -1113 0z m1134 -519 c-5 -110 -30 -156 -105
-192 -47 -24 -53 -24 -405 -27 l-358 -3 0 -220 0 -219 238 -1 c356 -1 642 -13
672 -28 79 -42 120 -121 120 -233 l0 -58 -530 0 -530 0 0 535 0 535 451 0 451
0 -4 -89z"/>
<path d="M3409 4352 c-246 -220 -544 -535 -683 -722 -183 -244 -361 -622 -402
-849 -18 -101 -18 -371 1 -492 38 -252 143 -452 335 -633 123 -116 294 -245
308 -232 3 3 -14 56 -37 118 -56 148 -68 213 -77 401 l-7 157 527 0 526 0 0
-117 c0 -200 -37 -389 -102 -516 -16 -33 -28 -61 -26 -63 2 -2 41 19 86 45
212 126 388 316 487 526 139 291 133 692 -13 981 -76 151 -197 306 -453 579
-87 94 -176 193 -198 222 -97 130 -157 407 -132 615 7 55 10 102 8 104 -2 3
-69 -53 -148 -124z m3 -1348 c89 -46 274 -268 352 -422 15 -30 25 -56 23 -58
-2 -2 -189 -3 -416 -2 l-411 3 33 70 c68 141 312 425 366 425 12 0 36 -7 53
-16z"/>
<path d="M4852 3390 c-45 -10 -103 -58 -125 -102 -31 -63 -36 -218 -37 -1045
l0 -813 220 0 220 0 2 607 3 607 440 -455 c241 -250 506 -523 587 -607 l148
-153 85 -6 c80 -6 87 -5 123 20 21 15 54 44 74 64 l36 38 4 918 3 917 -222 0
-223 0 0 -539 c0 -296 -3 -565 -6 -598 l-7 -60 -126 131 c-70 72 -273 284
-451 471 -178 187 -384 402 -459 478 l-136 137 -60 -1 c-33 -1 -75 -5 -93 -9z"/>
<path d="M368 2683 c1 -384 7 -791 11 -906 8 -200 10 -209 35 -247 14 -22 40
-47 56 -55 51 -26 220 -33 968 -40 l712 -7 0 221 0 221 -670 0 -670 0 0 755 0
755 -223 0 -223 0 4 -697z"/>
<path d="M418 861 c-29 -24 -36 -102 -37 -423 l-1 -228 75 0 75 0 0 150 c0 83
4 150 8 150 4 0 41 -57 82 -127 41 -71 85 -138 97 -150 52 -53 94 -18 193 158
l75 133 6 -139 c4 -77 7 -148 8 -157 1 -15 12 -18 72 -18 l71 0 -4 308 c-2
169 -8 314 -12 323 -4 9 -18 21 -32 28 -22 10 -29 7 -64 -27 -22 -20 -88 -118
-148 -216 -60 -99 -113 -181 -119 -183 -5 -2 -52 67 -103 154 -112 191 -153
249 -190 268 -26 13 -30 13 -52 -4z"/>
<path d="M2729 861 c-21 -17 -25 -31 -31 -113 -3 -51 -7 -193 -7 -315 l-1
-223 75 0 75 0 0 195 c0 155 3 195 13 195 8 0 87 -77 177 -171 190 -199 219
-221 273 -212 l37 6 0 328 0 329 -70 0 -70 0 0 -207 0 -208 -182 181 c-181
178 -242 234 -258 234 -4 0 -18 -9 -31 -19z"/>
<path d="M3780 717 c0 -234 17 -308 92 -393 75 -85 167 -114 366 -114 140 0
173 11 191 61 7 21 11 134 11 315 l0 284 -40 2 c-22 1 -52 2 -67 2 l-28 1 -5
-252 c-3 -138 -8 -254 -11 -258 -4 -3 -53 -7 -110 -7 -120 -2 -163 12 -202 63
-39 52 -48 101 -54 287 l-6 172 -68 0 -69 0 0 -163z"/>
<path d="M6002 573 c2 -170 7 -316 12 -325 4 -9 15 -20 24 -24 9 -4 140 -9
290 -12 l272 -4 0 71 0 71 -230 0 -230 0 0 265 0 265 -71 0 -70 0 3 -307z"/>
<path d="M1833 860 c-92 -19 -184 -95 -224 -186 -23 -50 -38 -195 -39 -356 l0
-108 75 0 75 0 0 80 0 80 190 0 190 0 0 -80 0 -80 70 0 70 0 0 285 c0 329 -3
347 -67 364 -44 13 -278 13 -340 1z m235 -136 c21 -6 22 -11 22 -104 l0 -97
-82 -6 c-104 -9 -192 -9 -240 -1 -35 6 -38 9 -38 38 0 46 40 118 77 139 53 30
198 47 261 31z"/>
<path d="M5137 860 c-92 -23 -169 -84 -212 -169 -30 -61 -45 -173 -45 -348 l0
-133 70 0 69 0 3 78 3 77 190 0 190 0 3 -77 3 -78 70 0 70 0 -3 298 c-2 163
-7 304 -11 312 -18 38 -48 45 -207 47 -85 1 -172 -2 -193 -7z m241 -136 c21
-6 22 -11 22 -104 l0 -98 -116 -7 c-121 -8 -232 -1 -247 14 -5 5 -3 31 7 63
22 77 75 120 161 131 51 7 149 7 173 1z"/>
</g>
</svg>
