<?xml version="1.0" standalone="no"?>
<!DOCTYPE svg PUBLIC "-//W3C//DTD SVG 20010904//EN"
 "http://www.w3.org/TR/2001/REC-SVG-20010904/DTD/svg10.dtd">
<svg version="1.0" xmlns="http://www.w3.org/2000/svg"
 width="400.000000pt" height="400.000000pt" viewBox="0 0 400.000000 400.000000"
 preserveAspectRatio="xMidYMid meet">

<g transform="translate(0.000000,400.000000) scale(0.100000,-0.100000)"
fill="#000000" stroke="none">
<path d="M1844 3820 c-156 -23 -273 -102 -330 -224 -26 -56 -33 -169 -14 -238
14 -49 92 -134 152 -164 28 -14 125 -45 217 -69 92 -24 184 -50 204 -59 70
-29 74 -101 7 -140 -28 -17 -51 -20 -134 -20 -117 1 -198 19 -304 69 l-73 34
-18 -42 c-11 -23 -33 -73 -50 -110 -17 -38 -31 -73 -31 -78 0 -22 166 -86 285
-110 79 -15 284 -15 360 0 139 29 254 112 303 219 20 45 26 72 26 132 -1 94
-24 149 -88 208 -65 60 -123 84 -317 132 -92 23 -181 50 -198 61 -60 37 -47
103 30 141 69 36 240 18 365 -37 31 -14 61 -22 65 -18 4 5 27 57 52 116 l45
108 -22 14 c-98 64 -357 101 -532 75z"/>
<path d="M190 3695 l0 -115 269 0 c291 0 363 -8 399 -43 34 -35 39 -85 11
-121 -42 -53 -62 -56 -384 -56 l-295 0 0 -110 0 -110 288 0 c339 0 395 -7 435
-50 32 -35 37 -92 11 -129 -34 -48 -60 -51 -409 -51 l-325 0 0 -115 0 -115
364 0 c200 0 385 4 412 9 97 19 166 52 219 105 59 59 75 103 75 200 0 115 -57
204 -163 254 l-38 18 46 33 c123 88 139 284 32 392 -100 100 -193 118 -624
119 l-323 0 0 -115z"/>
<path d="M2710 3696 l0 -114 303 -4 c203 -3 311 -8 329 -16 62 -26 83 -108 40
-155 -38 -44 -66 -47 -377 -47 l-295 0 0 -110 0 -110 288 0 c339 0 395 -7 435
-50 47 -53 32 -130 -33 -162 -31 -16 -71 -18 -362 -18 l-328 0 0 -115 0 -115
364 0 c200 0 385 4 412 9 193 37 294 139 294 297 0 118 -58 211 -167 264 l-34
16 45 32 c65 47 101 125 101 217 -1 81 -21 129 -82 187 -94 91 -188 107 -610
108 l-323 0 0 -114z"/>
<path d="M220 1975 l0 -565 430 0 430 0 0 125 0 125 -270 0 -270 0 0 440 0
440 -160 0 -160 0 0 -565z"/>
<path d="M1570 2263 c-68 -153 -179 -404 -247 -557 -67 -154 -123 -283 -123
-288 0 -5 72 -7 161 -6 l161 3 161 403 c99 248 164 397 169 390 4 -7 78 -190
165 -405 l157 -393 163 0 c90 0 163 3 163 8 0 4 -111 258 -246 565 l-247 557
-158 0 -157 0 -122 -277z"/>
<path d="M2710 2466 l0 -74 407 -491 407 -491 133 0 133 0 0 64 0 64 -152 194
c-84 107 -267 332 -407 501 l-255 307 -133 0 -133 0 0 -74z"/>
<path d="M3480 2435 l0 -105 151 -183 c84 -100 153 -184 155 -186 2 -2 4 127
4 287 l0 292 -155 0 -155 0 0 -105z"/>
<path d="M2710 1702 l0 -292 160 0 160 0 0 93 -1 92 -148 188 c-81 103 -153
193 -159 199 -9 9 -12 -59 -12 -280z"/>
<path d="M315 1028 c-7 -34 -23 -209 -30 -328 -3 -58 -8 -131 -11 -162 l-6
-58 60 0 60 0 6 128 c9 173 17 245 26 235 4 -4 34 -72 66 -151 l59 -143 43 3
44 3 61 147 c34 82 65 148 68 148 8 0 19 -168 19 -282 l0 -88 61 0 62 0 -7
138 c-7 142 -22 315 -32 390 l-6 43 -57 -3 -56 -3 -24 -49 c-13 -26 -48 -103
-77 -169 l-53 -122 -26 60 c-15 33 -49 111 -77 173 l-50 112 -59 0 c-53 0 -59
-2 -64 -22z"/>
<path d="M1172 997 c-39 -87 -122 -295 -163 -409 l-38 -108 63 0 64 0 19 58
20 57 115 3 116 3 19 -58 20 -58 66 -3 67 -3 -44 125 c-25 68 -68 180 -96 248
-29 67 -59 140 -68 161 l-15 37 -61 0 -61 0 -23 -53z m123 -177 c21 -56 35
-103 33 -106 -3 -3 -40 -4 -81 -2 l-75 3 32 85 c18 47 35 93 39 103 4 9 8 17
10 17 2 0 21 -45 42 -100z"/>
<path d="M1620 765 l0 -285 60 0 60 0 2 188 3 187 48 -60 c26 -33 84 -117 129
-187 l81 -128 48 0 49 0 0 285 0 285 -60 0 -60 0 -2 -167 -3 -167 -73 102
c-40 56 -97 131 -128 167 -54 64 -56 65 -105 65 l-49 0 0 -285z"/>
<path d="M2232 833 c3 -206 4 -220 26 -258 47 -82 152 -119 267 -95 48 10 68
20 101 54 25 24 46 58 53 81 6 23 11 124 11 238 l0 197 -60 0 -60 0 0 -185 c0
-200 -7 -238 -51 -269 -28 -19 -97 -21 -121 -2 -40 30 -48 77 -48 271 l0 185
-61 0 -60 0 3 -217z"/>
<path d="M2945 1000 c-31 -62 -113 -266 -166 -412 l-38 -108 63 0 64 0 19 58
20 57 115 3 116 3 19 -58 20 -58 66 -3 67 -3 -44 125 c-25 68 -68 180 -96 248
-29 67 -59 140 -68 161 -15 37 -15 37 -73 37 l-59 0 -25 -50z m120 -180 c21
-56 35 -103 33 -106 -3 -3 -40 -4 -81 -2 l-75 3 32 85 c18 47 35 93 39 103 4
9 8 17 10 17 2 0 21 -45 42 -100z"/>
<path d="M3390 765 l0 -285 185 0 185 0 0 55 0 55 -125 0 -125 0 0 230 0 230
-60 0 -60 0 0 -285z"/>
</g>
</svg>
